<?xml version="1.0" standalone="yes"?>
<svg xmlns="http://www.w3.org/2000/svg" width="2560" height="1067">
<path style="fill:#010101; stroke:none;" d="M0 0L0 439L1 439C1.02211 405.618 11.9083 369.728 24.1998 339C75.3121 211.224 210.686 115.481 351 125.089C395.979 128.17 440.901 138.44 482 157.309C503.358 167.114 523.614 185.551 546 192L547 146L673 146L675 380L676 380C689.783 329.504 715.802 280.313 750.286 241C857.649 118.605 1043.4 89.5485 1182 175.424C1218.75 198.196 1250.42 227.446 1276.37 262C1300.79 294.505 1322.76 334.056 1332 374L1333 374L1335 328L1335 248L1336 0L0 0z"/>
<path style="fill:#1fcb3f; stroke:none;" d="M1336 0L1335 247L1335 327L1333 374C1321.17 350.463 1315.12 324.41 1302.14 301C1266.6 236.931 1211.56 185.868 1145 155.309C991.968 85.0508 802.306 143.487 715.6 288C699.442 314.931 680.649 349.519 676 381L675 381L673 146L547 146L546 192C536.248 189.131 527.583 182.08 519 176.811C505.485 168.514 491.574 161.105 477 154.85C417.115 129.147 349.536 118.042 285 129.25C235.236 137.893 186.47 156.607 145 185.721C115.348 206.538 88.6662 231.797 67.1543 261C-23.5313 384.11 -21.3871 556.261 74.3997 676C102.65 711.314 136.556 738.983 176 760.861C214.915 782.445 259.745 796.619 304 800.83C367.102 806.835 428.52 795.084 486 768.691C507.227 758.945 525.702 745.258 546 734C547.928 744.871 545.065 757.314 542.789 768C535.556 801.966 517.454 833.544 493 858C405.312 945.693 263.91 938.836 159 886.752C130.69 872.697 103.473 857.093 79 836.916C67.0911 827.097 52.5003 805.999 37 803C34.2398 837.976 33 872.864 33 908C33 922.53 30.7834 941.939 38.3634 955C44.5482 965.656 56.5215 974.209 66 981.8C90.893 1001.74 118.8 1017.72 148 1030.42C262.954 1080.43 410.453 1087.98 518 1015.25C543.177 998.23 565.307 978.243 585.911 956C626.201 912.505 653.882 856.997 665.551 799C673.076 761.597 671.553 722.946 672.004 685C672.559 638.354 674 591.714 674 545L675 545C676.497 555.136 681.431 565.388 684.947 575C694.638 601.498 706.318 626.468 722 650C817.084 792.679 1012.08 844.855 1164 762.691C1230.92 726.498 1282.97 670.091 1314.69 601C1325.64 577.15 1328.55 550.614 1339 527C1347.69 546.639 1350.31 568.905 1358.2 589C1376.86 636.523 1406.02 680.463 1444 714.83C1490.29 756.714 1547.4 786.464 1609 797.576C1730.97 819.575 1873.99 766.319 1946 664L1947 664C1971.43 698.812 2007.23 729.137 2043 751.681C2079.51 774.689 2120.44 790.03 2163 797.08C2209.69 804.814 2258 803.606 2304 792.105C2342.81 782.401 2381.09 765.637 2414 742.795C2568.01 635.895 2605.2 417.998 2496.57 266C2412.94 148.977 2259.36 98.3505 2122 139.72C2075.83 153.625 2033.49 178.439 1997 209.729C1969.26 233.513 1945.66 263.11 1927.86 295C1908.88 329.007 1893.17 367.235 1887.43 406C1882.47 439.485 1884.52 473.852 1877.34 507C1870.19 540.006 1851.23 570.791 1827 593.961C1785.67 633.478 1735.93 643.439 1681 644.004C1655.23 644.269 1628.26 645.313 1603 639.346C1545.42 625.742 1498.49 583.893 1475.43 530C1461.83 498.218 1464 461.882 1464 428L1464 273L1737 272L1737 146L1463 146L1463 0L1336 0z"/>
<path style="fill:#010101; stroke:none;" d="M1463 0L1463 146L1737 146L1737 272L1464 273L1464 429C1464 464.65 1462.1 501.878 1477.31 535C1501.38 587.439 1547.38 626.614 1604 639.765C1629.17 645.61 1656.4 644.307 1682 644.004C1739.69 643.321 1795.49 631.689 1835.71 586C1856.38 562.532 1871.72 534.791 1878 504C1885.25 468.42 1881.58 431.549 1889.42 396C1908.39 310.028 1958.42 234.025 2031 184.026C2144.45 105.868 2302.15 106.496 2415 185.721C2469.59 224.048 2511.49 278.216 2536.2 340C2549.4 373.015 2559 410.288 2559 446L2560 446L2560 0L1463 0z"/>
<path style="fill:#01ff01; stroke:none;" d="M316 125L317 126L316 125z"/>
<path style="fill:#25db49; stroke:none;" d="M993 125L994 126L993 125z"/>
<path style="fill:#01ff01; stroke:none;" d="M1033 126L1034 127L1033 126z"/>
<path style="fill:#08c049; stroke:none;" d="M2193 126L2194 127L2193 126z"/>
<path style="fill:#01ff01; stroke:none;" d="M376 127L377 128L376 127z"/>
<path style="fill:#25db49; stroke:none;" d="M1043 127L1044 128L1043 127z"/>
<path style="fill:#01ff01; stroke:none;" d="M958 128L959 129L958 128z"/>
<path style="fill:#08c049; stroke:none;" d="M2174 128L2175 129L2174 128M2167 129L2168 130L2167 129M2273 129L2274 130L2273 129M278 130L279 131L278 130z"/>
<path style="fill:#25db49; stroke:none;" d="M2161 130L2162 131L2161 130z"/>
<path style="fill:#01ff01; stroke:none;" d="M1069 131L1070 132L1069 131M2285 131L2286 132L2285 131M268 132L269 133L268 132M1074 132L1075 133L1074 132z"/>
<path style="fill:#08c049; stroke:none;" d="M2290 132L2291 133L2290 132z"/>
<path style="fill:#01ff01; stroke:none;" d="M2295 133L2296 134L2295 133z"/>
<path style="fill:#08c049; stroke:none;" d="M1087 135L1088 136L1087 135z"/>
<path style="fill:#01ff01; stroke:none;" d="M248 137L249 138L248 137z"/>
<path style="fill:#25db49; stroke:none;" d="M915 137L916 138L915 137M430 138L431 139L430 138M1098 138L1099 139L1098 138z"/>
<path style="fill:#08c049; stroke:none;" d="M2315 138L2316 139L2315 138M238 140L239 141L238 140z"/>
<path style="fill:#01ff01; stroke:none;" d="M437 140L438 141L437 140z"/>
<path style="fill:#25db49; stroke:none;" d="M235 141L236 142L235 141z"/>
<path style="fill:#08c049; stroke:none;" d="M1108 141L1109 142L1108 141z"/>
<path style="fill:#25db49; stroke:none;" d="M1111 142L1112 143L1111 142M2328 142L2329 143L2328 142M229 143L230 144L229 143z"/>
<path style="fill:#08c049; stroke:none;" d="M1114 143L1115 144L1114 143M2334 144L2335 145L2334 144z"/>
<path style="fill:#01ff01; stroke:none;" d="M2337 145L2338 146L2337 145z"/>
<path style="fill:#25db49; stroke:none;" d="M455 146L456 147L455 146z"/>
<path style="fill:#01ff01; stroke:none;" d="M2102 146L2103 147L2102 146z"/>
<path style="fill:#08c049; stroke:none;" d="M884 147L885 148L884 147z"/>
<path style="fill:#25db49; stroke:none;" d="M1125 147L1126 148L1125 147M2097 148L2098 149L2097 148z"/>
<path style="fill:#01ff01; stroke:none;" d="M2345 148L2346 149L2345 148M2350 150L2351 151L2350 150z"/>
<path style="fill:#25db49; stroke:none;" d="M874 151L875 152L874 151z"/>
<path style="fill:#01ff01; stroke:none;" d="M203 153L204 154L203 153z"/>
<path style="fill:#08c049; stroke:none;" d="M473 153L474 154L473 153z"/>
<path style="fill:#01ff01; stroke:none;" d="M869 153L870 154L869 153z"/>
<path style="fill:#25db49; stroke:none;" d="M2085 153L2086 154L2085 153M2357 153L2358 154L2357 153z"/>
<path style="fill:#01ff01; stroke:none;" d="M480 156L481 157L480 156z"/>
<path style="fill:#08c049; stroke:none;" d="M2366 157L2367 158L2366 157z"/>
<path style="fill:#01ff01; stroke:none;" d="M192 158L193 159L192 158M673.333 158.667L673.667 159.333L673.333 158.667z"/>
<path style="fill:#08c049; stroke:none;" d="M858 158L859 159L858 158z"/>
<path style="fill:#25db49; stroke:none;" d="M2368 158L2369 159L2368 158z"/>
<path style="fill:#08c049; stroke:none;" d="M190 159L191 160L190 159z"/>
<path style="fill:#25db49; stroke:none;" d="M856 159L857 160L856 159z"/>
<path style="fill:#01ff01; stroke:none;" d="M1153 159L1154 160L1153 159M2072 159L2073 160L2072 159z"/>
<path style="fill:#08c049; stroke:none;" d="M188 160L189 161L188 160M673.333 160.667L673.667 161.333L673.333 160.667z"/>
<path style="fill:#25db49; stroke:none;" d="M854 160L855 161L854 160z"/>
<path style="fill:#01ff01; stroke:none;" d="M1155 160L1156 161L1155 160M2070 160L2071 161L2070 160M1157 161L1158 162L1157 161z"/>
<path style="fill:#08c049; stroke:none;" d="M184 162L185 163L184 162z"/>
<path style="fill:#25db49; stroke:none;" d="M673 162L674 163L673 162z"/>
<path style="fill:#01ff01; stroke:none;" d="M182 163L183 164L182 163M180 164L181 165L180 164z"/>
<path style="fill:#08c049; stroke:none;" d="M846 164L847 165L846 164M2380 164L2381 165L2380 164z"/>
<path style="fill:#01ff01; stroke:none;" d="M504 168L505 169L504 168z"/>
<path style="fill:#25db49; stroke:none;" d="M1170 168L1171 169L1170 168z"/>
<path style="fill:#01ff01; stroke:none;" d="M2055 168L2056 169L2055 168z"/>
<path style="fill:#25db49; stroke:none;" d="M171 169L172 170L171 169M837 169L838 170L837 169z"/>
<path style="fill:#01ff01; stroke:none;" d="M1172 169L1173 170L1172 169z"/>
<path style="fill:#25db49; stroke:none;" d="M2050 171L2051 172L2050 171z"/>
<path style="fill:#08c049; stroke:none;" d="M511 172L512 173L511 172z"/>
<path style="fill:#01ff01; stroke:none;" d="M164 173L165 174L164 173z"/>
<path style="fill:#08c049; stroke:none;" d="M2396 173L2397 174L2396 173z"/>
<path style="fill:#01ff01; stroke:none;" d="M1335.33 174.667L1335.67 175.333L1335.33 174.667z"/>
<path style="fill:#08c049; stroke:none;" d="M516 175L517 176L516 175z"/>
<path style="fill:#01ff01; stroke:none;" d="M159 176L160 177L159 176z"/>
<path style="fill:#08c049; stroke:none;" d="M1335.33 176.667L1335.67 177.333L1335.33 176.667M2404 178L2405 179L2404 178M2037 179L2038 180L2037 179z"/>
<path style="fill:#01ff01; stroke:none;" d="M524 180L525 181L524 180M819 180L820 181L819 180M1190 180L1191 181L1190 180z"/>
<path style="fill:#25db49; stroke:none;" d="M1335.33 180.667L1335.67 181.333L1335.33 180.667z"/>
<path style="fill:#08c049; stroke:none;" d="M2034 181L2035 182L2034 181z"/>
<path style="fill:#25db49; stroke:none;" d="M527 182L528 183L527 182z"/>
<path style="fill:#08c049; stroke:none;" d="M816 182L817 183L816 182M1193 182L1194 183L1193 182M2031 183L2032 184L2031 183M546 184L547 185L546 184z"/>
<path style="fill:#01ff01; stroke:none;" d="M1196 184L1197 185L1196 184z"/>
<path style="fill:#08c049; stroke:none;" d="M2413 184L2414 185L2413 184z"/>
<path style="fill:#01ff01; stroke:none;" d="M532 185L533 186L532 185M2028 185L2029 186L2028 185M2416 186L2417 187L2416 186M141 188L142 189L141 188M539 189L540 190L539 189M806 189L807 190L806 189z"/>
<path style="fill:#25db49; stroke:none;" d="M1203 189L1204 190L1203 189z"/>
<path style="fill:#01ff01; stroke:none;" d="M541 190L542 191L541 190M2021 190L2022 191L2021 190z"/>
<path style="fill:#08c049; stroke:none;" d="M137 191L138 192L137 191z"/>
<path style="fill:#01ff01; stroke:none;" d="M543 191L544 192L543 191M802 192L803 193L802 192z"/>
<path style="fill:#08c049; stroke:none;" d="M2017 193L2018 194L2017 193z"/>
<path style="fill:#25db49; stroke:none;" d="M133 194L134 195L133 194M1211 195L1212 196L1211 195z"/>
<path style="fill:#01ff01; stroke:none;" d="M2013 196L2014 197L2013 196M129 197L130 198L129 197M1215 198L1216 199L1215 198M124 201L125 202L124 201M2438 203L2439 204L2438 203M787 204L788 205L787 204z"/>
<path style="fill:#08c049; stroke:none;" d="M2003 204L2004 205L2003 204z"/>
<path style="fill:#25db49; stroke:none;" d="M117 207L118 208L117 207z"/>
<path style="fill:#01ff01; stroke:none;" d="M1227 208L1228 209L1227 208M1997 209L1998 210L1997 209M2445 209L2446 210L2445 209z"/>
<path style="fill:#08c049; stroke:none;" d="M1996 210L1997 211L1996 210M779 211L780 212L779 211z"/>
<path style="fill:#25db49; stroke:none;" d="M778 212L779 213L778 212z"/>
<path style="fill:#01ff01; stroke:none;" d="M109 214L110 215L109 214z"/>
<path style="fill:#08c049; stroke:none;" d="M108 215L109 216L108 215z"/>
<path style="fill:#25db49; stroke:none;" d="M107 216L108 217L107 216z"/>
<path style="fill:#01ff01; stroke:none;" d="M1239 219L1240 220L1239 219z"/>
<path style="fill:#08c049; stroke:none;" d="M1240 220L1241 221L1240 220z"/>
<path style="fill:#01ff01; stroke:none;" d="M1985 220L1986 221L1985 220z"/>
<path style="fill:#08c049; stroke:none;" d="M1241 221L1242 222L1241 221z"/>
<path style="fill:#01ff01; stroke:none;" d="M1984 221L1985 222L1984 221z"/>
<path style="fill:#08c049; stroke:none;" d="M1242 222L1243 223L1242 222z"/>
<path style="fill:#01ff01; stroke:none;" d="M1983 222L1984 223L1983 222z"/>
<path style="fill:#08c049; stroke:none;" d="M1243 223L1244 224L1243 223z"/>
<path style="fill:#01ff01; stroke:none;" d="M1982 223L1983 224L1982 223z"/>
<path style="fill:#08c049; stroke:none;" d="M1244 224L1245 225L1244 224z"/>
<path style="fill:#01ff01; stroke:none;" d="M1981 224L1982 225L1981 224M1245 225L1246 226L1245 225M1980 225L1981 226L1980 225M1246 226L1247 227L1246 226M1979 226L1980 227L1979 226M1247 227L1248 228L1247 227z"/>
<path style="fill:#08c049; stroke:none;" d="M1978 227L1979 228L1978 227z"/>
<path style="fill:#01ff01; stroke:none;" d="M1248 228L1249 229L1248 228M1977 228L1978 229L1977 228M89 234L90 235L89 234z"/>
<path style="fill:#08c049; stroke:none;" d="M2473 237L2474 238L2473 237M1258 239L1259 240L1258 239M750 240L751 241L750 240z"/>
<path style="fill:#01ff01; stroke:none;" d="M749 241L750 242L749 241M81 243L82 244L81 243z"/>
<path style="fill:#25db49; stroke:none;" d="M2479 244L2480 245L2479 244z"/>
<path style="fill:#01ff01; stroke:none;" d="M2480 245L2481 246L2480 245z"/>
<path style="fill:#08c049; stroke:none;" d="M1264 246L1265 247L1264 246z"/>
<path style="fill:#01ff01; stroke:none;" d="M1961 246L1962 247L1961 246z"/>
<path style="fill:#25db49; stroke:none;" d="M76 249L77 250L76 249z"/>
<path style="fill:#01ff01; stroke:none;" d="M2484 250L2485 251L2484 250z"/>
<path style="fill:#08c049; stroke:none;" d="M1957 251L1958 252L1957 251z"/>
<path style="fill:#25db49; stroke:none;" d="M72 254L73 255L72 254z"/>
<path style="fill:#01ff01; stroke:none;" d="M2488 255L2489 256L2488 255z"/>
<path style="fill:#08c049; stroke:none;" d="M1272 256L1273 257L1272 256M736 257L737 258L736 257z"/>
<path style="fill:#01ff01; stroke:none;" d="M2491 259L2492 260L2491 259M1950 260L1951 261L1950 260M2494 263L2495 264L2494 263M730 265L731 266L730 265z"/>
<path style="fill:#25db49; stroke:none;" d="M63 266L64 267L63 266z"/>
<path style="fill:#01ff01; stroke:none;" d="M1945 267L1946 268L1945 267M1281 268L1282 269L1281 268z"/>
<path style="fill:#08c049; stroke:none;" d="M1283 271L1284 272L1283 271z"/>
<path style="fill:#01ff01; stroke:none;" d="M1636 272L1637 273L1636 272z"/>
<path style="fill:#25db49; stroke:none;" d="M1941 273L1942 274L1941 273z"/>
<path style="fill:#01ff01; stroke:none;" d="M2501 273L2502 274L2501 273z"/>
<path style="fill:#08c049; stroke:none;" d="M1939 276L1940 277L1939 276z"/>
<path style="fill:#01ff01; stroke:none;" d="M2503 276L2504 277L2503 276z"/>
<path style="fill:#010101; stroke:none;" d="M978 278.424C931.219 284.567 888.663 291.055 852 324.17C796.112 374.65 776.603 461.809 804.45 532C817.16 564.036 840.432 592.007 868 612.522C921.482 652.32 992.707 653.59 1056 645.715C1096.74 640.647 1136.73 623.245 1165.99 593.985C1230.16 529.811 1235.04 419.358 1180.11 348C1134.49 288.724 1049.77 269 978 278.424z"/>
<path style="fill:#08c049; stroke:none;" d="M1033 278L1034 279L1033 278z"/>
<path style="fill:#010101; stroke:none;" d="M296 279.424C253.609 284.99 214.241 297.069 182 327.089C111.675 392.571 105.761 512.306 170.171 584C227.424 647.728 310.669 655.71 391 645.715C453.831 637.898 505.194 600.105 533.247 544C537.234 536.026 542.925 527.589 545.363 519C549.271 505.231 546 486.306 546 472C546 451.668 549.901 426.85 545.61 407C541.256 386.861 524.89 363.073 512.5 347C470.405 292.391 405.969 279 341 279C326.267 279 310.611 277.506 296 279.424z"/>
<path style="fill:#01ff01; stroke:none;" d="M1045 279L1046 280L1045 279z"/>
<path style="fill:#08c049; stroke:none;" d="M1937 279L1938 280L1937 279z"/>
<path style="fill:#25db49; stroke:none;" d="M2181 279L2182 280L2181 279z"/>
<path style="fill:#010101; stroke:none;" d="M2182 279.424C2140.03 284.936 2101.58 294.844 2069 324.171C1992.12 393.359 1988.76 520.687 2062.04 593.961C2116.43 648.347 2198.59 655.957 2271 646.714C2314.89 641.112 2357.97 621.064 2387.83 588C2445.52 524.128 2451.38 419.935 2398.76 351C2370.72 314.259 2327.74 288.788 2282 281.438C2263.28 278.431 2243.91 279 2225 279C2210.92 279 2195.97 277.59 2182 279.424z"/>
<path style="fill:#01ff01; stroke:none;" d="M2257 279L2258 280L2257 279z"/>
<path style="fill:#08c049; stroke:none;" d="M1054 280L1055 281L1054 280z"/>
<path style="fill:#01ff01; stroke:none;" d="M948 281L949 282L948 281M1067 282L1068 283L1067 282M1935 282L1936 283L1935 282z"/>
<path style="fill:#25db49; stroke:none;" d="M2287 282L2288 283L2287 282z"/>
<path style="fill:#01ff01; stroke:none;" d="M718 283L719 284L718 283M936 283L937 284L936 283z"/>
<path style="fill:#08c049; stroke:none;" d="M1291 283L1292 284L1291 283z"/>
<path style="fill:#25db49; stroke:none;" d="M1077 284L1078 285L1077 284M2508 284L2509 285L2508 284z"/>
<path style="fill:#01ff01; stroke:none;" d="M258 285L259 286L258 285M1081 285L1082 286L1081 285z"/>
<path style="fill:#08c049; stroke:none;" d="M418 286L419 287L418 286z"/>
<path style="fill:#25db49; stroke:none;" d="M1085 286L1086 287L1085 286z"/>
<path style="fill:#01ff01; stroke:none;" d="M1932 287L1933 288L1932 287z"/>
<path style="fill:#08c049; stroke:none;" d="M2135 287L2136 288L2135 287z"/>
<path style="fill:#25db49; stroke:none;" d="M715 288L716 289L715 288z"/>
<path style="fill:#01ff01; stroke:none;" d="M2132 288L2133 289L2132 288z"/>
<path style="fill:#25db49; stroke:none;" d="M48 289L49 290L48 289M428 289L429 290L428 289M912 289L913 290L912 289z"/>
<path style="fill:#01ff01; stroke:none;" d="M2129 289L2130 290L2129 289z"/>
<path style="fill:#08c049; stroke:none;" d="M431 290L432 291L431 290z"/>
<path style="fill:#25db49; stroke:none;" d="M909 290L910 291L909 290z"/>
<path style="fill:#08c049; stroke:none;" d="M240 291L241 292L240 291z"/>
<path style="fill:#01ff01; stroke:none;" d="M1296 291L1297 292L1296 291M2317 291L2318 292L2317 291M1929 292L1930 293L1929 292z"/>
<path style="fill:#08c049; stroke:none;" d="M235 293L236 294L235 293z"/>
<path style="fill:#01ff01; stroke:none;" d="M439 293L440 294L439 293M712 293L713 294L712 293z"/>
<path style="fill:#08c049; stroke:none;" d="M45 294L46 295L45 294z"/>
<path style="fill:#01ff01; stroke:none;" d="M2116 294L2117 295L2116 294z"/>
<path style="fill:#08c049; stroke:none;" d="M2514 294L2515 295L2514 294z"/>
<path style="fill:#01ff01; stroke:none;" d="M444 295L445 296L444 295z"/>
<path style="fill:#08c049; stroke:none;" d="M1113 296L1114 297L1113 296z"/>
<path style="fill:#01ff01; stroke:none;" d="M2329 296L2330 297L2329 296M224 298L225 299L224 298z"/>
<path style="fill:#08c049; stroke:none;" d="M1300 298L1301 299L1300 298M222 299L223 300L222 299z"/>
<path style="fill:#25db49; stroke:none;" d="M888 299L889 300L888 299M2105 299L2106 300L2105 299z"/>
<path style="fill:#01ff01; stroke:none;" d="M41 301L42 302L41 301z"/>
<path style="fill:#25db49; stroke:none;" d="M218 301L219 302L218 301z"/>
<path style="fill:#01ff01; stroke:none;" d="M1924 301L1925 302L1924 301M2518 301L2519 302L2518 301M707 302L708 303L707 302z"/>
<path style="fill:#25db49; stroke:none;" d="M40 303L41 304L40 303z"/>
<path style="fill:#01ff01; stroke:none;" d="M1127 303L1128 304L1127 303z"/>
<path style="fill:#25db49; stroke:none;" d="M1923 303L1924 304L1923 303z"/>
<path style="fill:#08c049; stroke:none;" d="M2519 303L2520 304L2519 303z"/>
<path style="fill:#01ff01; stroke:none;" d="M879 304L880 305L879 304M2096 304L2097 305L2096 304z"/>
<path style="fill:#25db49; stroke:none;" d="M211 305L212 306L211 305z"/>
<path style="fill:#01ff01; stroke:none;" d="M464 305L465 306L464 305z"/>
<path style="fill:#08c049; stroke:none;" d="M874 307L875 308L874 307M1134 307L1135 308L1134 307M2091 307L2092 308L2091 307z"/>
<path style="fill:#01ff01; stroke:none;" d="M2350 307L2351 308L2350 307M871 309L872 310L871 309M1306 309L1307 310L1306 309z"/>
<path style="fill:#08c049; stroke:none;" d="M868 311L869 312L868 311M1307 311L1308 312L1307 311z"/>
<path style="fill:#01ff01; stroke:none;" d="M2085 311L2086 312L2085 311z"/>
<path style="fill:#08c049; stroke:none;" d="M1308 313L1309 314L1308 313M196 315L197 316L196 315M1146 315L1147 316L1146 315z"/>
<path style="fill:#01ff01; stroke:none;" d="M1309 315L1310 316L1309 315z"/>
<path style="fill:#08c049; stroke:none;" d="M2362 315L2363 316L2362 315z"/>
<path style="fill:#25db49; stroke:none;" d="M33 317L34 318L33 317z"/>
<path style="fill:#01ff01; stroke:none;" d="M482 317L483 318L482 317M1310 317L1311 318L1310 317M2077 317L2078 318L2077 317z"/>
<path style="fill:#08c049; stroke:none;" d="M1150 318L1151 319L1150 318z"/>
<path style="fill:#01ff01; stroke:none;" d="M2366 318L2367 319L2366 318z"/>
<path style="fill:#08c049; stroke:none;" d="M32 319L33 320L32 319z"/>
<path style="fill:#01ff01; stroke:none;" d="M1311 319L1312 320L1311 319z"/>
<path style="fill:#25db49; stroke:none;" d="M486 320L487 321L486 320z"/>
<path style="fill:#08c049; stroke:none;" d="M698 320L699 321L698 320M31 321L32 322L31 321z"/>
<path style="fill:#01ff01; stroke:none;" d="M487 321L488 322L487 321M855 321L856 322L855 321z"/>
<path style="fill:#25db49; stroke:none;" d="M2072 321L2073 322L2072 321z"/>
<path style="fill:#01ff01; stroke:none;" d="M2528 321L2529 322L2528 321z"/>
<path style="fill:#25db49; stroke:none;" d="M1155 322L1156 323L1155 322z"/>
<path style="fill:#08c049; stroke:none;" d="M186 323L187 324L186 323z"/>
<path style="fill:#01ff01; stroke:none;" d="M1156 323L1157 324L1156 323z"/>
<path style="fill:#25db49; stroke:none;" d="M495 328L496 329L495 328z"/>
<path style="fill:#08c049; stroke:none;" d="M496 329L497 330L496 329z"/>
<path style="fill:#25db49; stroke:none;" d="M694 329L695 330L694 329z"/>
<path style="fill:#08c049; stroke:none;" d="M27 330L28 331L27 330M497 330L498 331L497 330z"/>
<path style="fill:#25db49; stroke:none;" d="M845 330L846 331L845 330z"/>
<path style="fill:#01ff01; stroke:none;" d="M1316 330L1317 331L1316 330z"/>
<path style="fill:#25db49; stroke:none;" d="M2380 330L2381 331L2380 330z"/>
<path style="fill:#01ff01; stroke:none;" d="M2532 330L2533 331L2532 330M498 331L499 332L498 331z"/>
<path style="fill:#08c049; stroke:none;" d="M2381 331L2382 332L2381 331z"/>
<path style="fill:#01ff01; stroke:none;" d="M499 332L500 333L499 332z"/>
<path style="fill:#08c049; stroke:none;" d="M2382 332L2383 333L2382 332z"/>
<path style="fill:#01ff01; stroke:none;" d="M500 333L501 334L500 333M691 336L692 337L691 336M1907 337L1908 338L1907 337M674.333 338.667L674.667 339.333L674.333 338.667M169 340L170 341L169 340z"/>
<path style="fill:#08c049; stroke:none;" d="M674.333 340.667L674.667 341.333L674.333 340.667z"/>
<path style="fill:#01ff01; stroke:none;" d="M2053 340L2054 341L2053 340z"/>
<path style="fill:#25db49; stroke:none;" d="M168 341L169 342L168 341z"/>
<path style="fill:#08c049; stroke:none;" d="M689 341L690 342L689 341z"/>
<path style="fill:#01ff01; stroke:none;" d="M1174 341L1175 342L1174 341M508 342L509 343L508 342z"/>
<path style="fill:#25db49; stroke:none;" d="M674 342L675 343L674 342M1175 342L1176 343L1175 342z"/>
<path style="fill:#01ff01; stroke:none;" d="M1905 342L1906 343L1905 342M2392 343L2393 344L2392 343M21 345L22 346L21 345M2538 345L2539 346L2538 345M164 346L165 347L164 346M687 346L688 347L687 346z"/>
<path style="fill:#08c049; stroke:none;" d="M830 347L831 348L830 347M1179 347L1180 348L1179 347M1334 347L1335 348L1334 347z"/>
<path style="fill:#01ff01; stroke:none;" d="M2396 348L2397 349L2396 348M1324 350L1325 351L1324 350M515 351L516 352L515 351M827 351L828 352L827 351M1182 351L1183 352L1182 351z"/>
<path style="fill:#08c049; stroke:none;" d="M2043 352L2044 353L2043 352M1901 353L1902 354L1901 353z"/>
<path style="fill:#01ff01; stroke:none;" d="M158 354L159 355L158 354z"/>
<path style="fill:#25db49; stroke:none;" d="M2040 356L2041 357L2040 356z"/>
<path style="fill:#01ff01; stroke:none;" d="M156 357L157 358L156 357M683 357L684 358L683 357z"/>
<path style="fill:#25db49; stroke:none;" d="M520 358L521 359L520 358z"/>
<path style="fill:#01ff01; stroke:none;" d="M2038 359L2039 360L2038 359M154 360L155 361L154 360M819 363L820 364L819 363M2407 364L2408 365L2407 364z"/>
<path style="fill:#08c049; stroke:none;" d="M1897 365L1898 366L1897 365M525 366L526 367L525 366z"/>
<path style="fill:#01ff01; stroke:none;" d="M2033 367L2034 368L2033 367z"/>
<path style="fill:#08c049; stroke:none;" d="M816 368L817 369L816 368z"/>
<path style="fill:#01ff01; stroke:none;" d="M1193 368L1194 369L1193 368M13 369L14 370L13 369M2410 369L2411 370L2410 369z"/>
<path style="fill:#25db49; stroke:none;" d="M1331 371L1332 372L1331 371z"/>
<path style="fill:#01ff01; stroke:none;" d="M147 372L148 373L147 372z"/>
<path style="fill:#08c049; stroke:none;" d="M1333 372L1334 373L1333 372M529 373L530 374L529 373z"/>
<path style="fill:#01ff01; stroke:none;" d="M530 375L531 376L530 375M1894 375L1895 376L1894 375M531 377L532 378L531 377M676 377L677 378L676 377M10 380L11 381L10 380M143 380L144 381L143 380z"/>
<path style="fill:#08c049; stroke:none;" d="M675 380L676 381L675 380z"/>
<path style="fill:#01ff01; stroke:none;" d="M9 384L10 385L9 384M2418 385L2419 386L2418 385M536 387L537 388L536 387z"/>
<path style="fill:#25db49; stroke:none;" d="M2419 387L2420 388L2419 387z"/>
<path style="fill:#08c049; stroke:none;" d="M1203 388L1204 389L1203 388M139 389L140 390L139 389z"/>
<path style="fill:#01ff01; stroke:none;" d="M805 391L806 392L805 391M1205 393L1206 394L1205 393M2552 393L2553 394L2552 393z"/>
<path style="fill:#08c049; stroke:none;" d="M2422 394L2423 395L2422 394z"/>
<path style="fill:#01ff01; stroke:none;" d="M1889 395L1890 396L1889 395z"/>
<path style="fill:#25db49; stroke:none;" d="M803 396L804 397L803 396z"/>
<path style="fill:#01ff01; stroke:none;" d="M136 397L137 398L136 397z"/>
<path style="fill:#25db49; stroke:none;" d="M2553 398L2554 399L2553 398z"/>
<path style="fill:#01ff01; stroke:none;" d="M802 399L803 400L802 399z"/>
<path style="fill:#08c049; stroke:none;" d="M2424 399L2425 400L2424 399z"/>
<path style="fill:#01ff01; stroke:none;" d="M1208 401L1209 402L1208 401M801 402L802 403L801 402M134 403L135 404L134 403M2554 403L2555 404L2554 403M1209 404L1210 405L1209 404z"/>
<path style="fill:#08c049; stroke:none;" d="M800 405L801 406L800 405M133 406L134 407L133 406z"/>
<path style="fill:#25db49; stroke:none;" d="M2016 406L2017 407L2016 406z"/>
<path style="fill:#01ff01; stroke:none;" d="M1210 407L1211 408L1210 407M4 408L5 409L4 408z"/>
<path style="fill:#08c049; stroke:none;" d="M2015 409L2016 410L2015 409z"/>
<path style="fill:#25db49; stroke:none;" d="M2555 409L2556 410L2555 409z"/>
<path style="fill:#01ff01; stroke:none;" d="M798 412L799 413L798 412z"/>
<path style="fill:#25db49; stroke:none;" d="M131 413L132 414L131 413z"/>
<path style="fill:#01ff01; stroke:none;" d="M1886 413L1887 414L1886 413M3 414L4 415L3 414M2429 415L2430 416L2429 415z"/>
<path style="fill:#08c049; stroke:none;" d="M130 417L131 418L130 417M2 421L3 422L2 421z"/>
<path style="fill:#25db49; stroke:none;" d="M1214 422L1215 423L1214 422z"/>
<path style="fill:#08c049; stroke:none;" d="M2011 425L2012 426L2011 425M1 429L2 430L1 429z"/>
<path style="fill:#01ff01; stroke:none;" d="M1215 429L1216 430L1215 429z"/>
<path style="fill:#08c049; stroke:none;" d="M2432 431L2433 432L2432 431z"/>
<path style="fill:#01ff01; stroke:none;" d="M127 432L128 433L127 432z"/>
<path style="fill:#08c049; stroke:none;" d="M2558 432L2559 433L2558 432z"/>
<path style="fill:#01ff01; stroke:none;" d="M2010 436L2011 437L2010 436M0 439L1 440L0 439z"/>
<path style="fill:#08c049; stroke:none;" d="M126 439L127 440L126 439z"/>
<path style="fill:#01ff01; stroke:none;" d="M1216 442L1217 443L1216 442M2433 442L2434 443L2433 442z"/>
<path style="fill:#08c049; stroke:none;" d="M793 445L794 446L793 445M2559 446L2560 447L2559 446M125 449L126 450L125 449M1882 463L1883 464L1882 463z"/>
<path style="fill:#01ff01; stroke:none;" d="M1464 467L1465 468L1464 467z"/>
<path style="fill:#08c049; stroke:none;" d="M125 475L126 476L125 475M1881 477L1882 478L1881 477z"/>
<path style="fill:#25db49; stroke:none;" d="M793 479L794 480L793 479z"/>
<path style="fill:#01ff01; stroke:none;" d="M2559 482L2560 483L2559 482z"/>
<path style="fill:#25db49; stroke:none;" d="M2010 483L2011 484L2010 483z"/>
<path style="fill:#010101; stroke:none;" d="M2559 483C2559 512.733 2551.69 542.937 2542.33 571C2488.58 732.26 2317.43 828.717 2152 794.996C2092.74 782.918 2038.78 754.334 1994 713.83C1976.93 698.388 1963.05 680.385 1947 664L1946 664C1933.71 676.397 1923.31 690.615 1910.96 702.961C1889.92 724.005 1865.18 742.5 1839 756.691C1740.64 810.012 1619.63 818.68 1519 766.742C1483.42 748.378 1451.34 723.252 1424.09 694C1396.01 663.856 1372.99 627.584 1358.43 589C1350.97 569.259 1348.73 545.541 1339 527C1333.85 535.19 1333.35 546.781 1330.71 556C1325.67 573.556 1319.32 590.394 1311.69 607C1287.06 660.635 1246.15 707.635 1198 741.28C1078.59 824.728 916.239 820.292 800 733.105C767.542 708.759 740.674 677.896 718.657 644C699.561 614.602 682.942 579.328 675 545L674 545C674 591.709 673.157 638.363 672.015 685C670.659 740.334 671.187 793.003 652.308 846C632.358 902.003 594.874 951.797 550 990.271C527.027 1009.97 501.607 1026.86 474 1039.31C441.466 1053.97 403.95 1066 368 1066L368 1067L2560 1067L2560 653L2560 534C2560 519.7 2564.51 496.121 2559 483z"/>
<path style="fill:#08c049; stroke:none;" d="M126 485L127 486L126 485z"/>
<path style="fill:#01ff01; stroke:none;" d="M1216 485L1217 486L1216 485M0 487L1 488L0 487z"/>
<path style="fill:#010101; stroke:none;" d="M0 488L0 1067L277 1067L277 1066C258.654 1065.62 239.708 1060.3 222 1055.87C175.119 1044.15 129.259 1024.83 89 998C71.7914 986.532 45.3114 970.628 36.8804 951C30.8674 937.001 33 918.882 33 904C33 870.211 34.3455 836.636 37 803C52.8654 808.066 66.2755 827.15 79 837.576C103.065 857.292 130.051 873.218 158 886.742C263.793 937.93 405.51 946.632 494 858C518.225 833.736 535.098 802.38 542.651 769C545.029 758.489 548.443 744.631 546 734C531.117 740.413 518.366 751.639 504 759.219C472.199 775.999 438.146 788.824 403 796.576C268.954 826.14 125.561 758.189 52.6921 645C31.6184 612.265 17.6687 575.662 8.37423 538C4.57504 522.605 5.96757 502.221 0 488z"/>
<path style="fill:#01ff01; stroke:none;" d="M794 491L795 492L794 491z"/>
<path style="fill:#08c049; stroke:none;" d="M127 492L128 493L127 492z"/>
<path style="fill:#25db49; stroke:none;" d="M1879 495L1880 496L1879 495z"/>
<path style="fill:#01ff01; stroke:none;" d="M2011 496L2012 497L2011 496M1 498L2 499L1 498M129 502L130 503L129 502M2012 503L2013 504L2012 503M2 506L3 507L2 506z"/>
<path style="fill:#25db49; stroke:none;" d="M1877 506L1878 507L1877 506z"/>
<path style="fill:#01ff01; stroke:none;" d="M2013 508L2014 509L2013 508z"/>
<path style="fill:#08c049; stroke:none;" d="M797 509L798 510L797 509z"/>
<path style="fill:#25db49; stroke:none;" d="M1213 509L1214 510L1213 509z"/>
<path style="fill:#01ff01; stroke:none;" d="M1876 510L1877 511L1876 510z"/>
<path style="fill:#08c049; stroke:none;" d="M2556 512L2557 513L2556 512z"/>
<path style="fill:#01ff01; stroke:none;" d="M798 513L799 514L798 513z"/>
<path style="fill:#08c049; stroke:none;" d="M1875 514L1876 515L1875 514z"/>
<path style="fill:#25db49; stroke:none;" d="M2428 514L2429 515L2428 514z"/>
<path style="fill:#01ff01; stroke:none;" d="M800 520L801 521L800 520M1471 520L1472 521L1471 520z"/>
<path style="fill:#08c049; stroke:none;" d="M2426 520L2427 521L2426 520z"/>
<path style="fill:#25db49; stroke:none;" d="M1209 522L1210 523L1209 522z"/>
<path style="fill:#01ff01; stroke:none;" d="M135 523L136 524L135 523M801 523L802 524L801 523M5 524L6 525L5 524M802 526L803 527L802 526M1339 527L1340 528L1339 527z"/>
<path style="fill:#08c049; stroke:none;" d="M6 529L7 530L6 529z"/>
<path style="fill:#01ff01; stroke:none;" d="M1870 529L1871 530L1870 529M1206 530L1207 531L1206 530M1475 530L1476 531L1475 530z"/>
<path style="fill:#08c049; stroke:none;" d="M7 534L8 535L7 534z"/>
<path style="fill:#25db49; stroke:none;" d="M1868 534L1869 535L1868 534z"/>
<path style="fill:#08c049; stroke:none;" d="M1204 535L1205 536L1204 535M806 536L807 537L806 536z"/>
<path style="fill:#01ff01; stroke:none;" d="M1867 536L1868 537L1867 536z"/>
<path style="fill:#25db49; stroke:none;" d="M536 537L537 538L536 537M8 538L9 539L8 538z"/>
<path style="fill:#08c049; stroke:none;" d="M2024 538L2025 539L2024 538z"/>
<path style="fill:#25db49; stroke:none;" d="M2419 538L2420 539L2419 538z"/>
<path style="fill:#01ff01; stroke:none;" d="M2551 539L2552 540L2551 539M2025 540L2026 541L2025 540M2418 540L2419 541L2418 540z"/>
<path style="fill:#08c049; stroke:none;" d="M534 541L535 542L534 541z"/>
<path style="fill:#01ff01; stroke:none;" d="M2026 542L2027 543L2026 542z"/>
<path style="fill:#08c049; stroke:none;" d="M533 543L534 544L533 543z"/>
<path style="fill:#25db49; stroke:none;" d="M2550 543L2551 544L2550 543z"/>
<path style="fill:#01ff01; stroke:none;" d="M2027 544L2028 545L2027 544z"/>
<path style="fill:#25db49; stroke:none;" d="M532 545L533 546L532 545M1199 546L1200 547L1199 546z"/>
<path style="fill:#01ff01; stroke:none;" d="M2028 546L2029 547L2028 546z"/>
<path style="fill:#08c049; stroke:none;" d="M1345 547L1346 548L1345 547M2549 547L2550 548L2549 547z"/>
<path style="fill:#25db49; stroke:none;" d="M1198 548L1199 549L1198 548z"/>
<path style="fill:#01ff01; stroke:none;" d="M2029 548L2030 549L2029 548M1332 549L1333 550L1332 549M1346 551L1347 552L1346 551M2548 551L2549 552L2548 551M148 552L149 553L148 552M2412 552L2413 553L2412 552M1331 553L1332 554L1331 553z"/>
<path style="fill:#25db49; stroke:none;" d="M149 554L150 555L149 554z"/>
<path style="fill:#01ff01; stroke:none;" d="M815 554L816 555L815 554M1487 554L1488 555L1487 554z"/>
<path style="fill:#08c049; stroke:none;" d="M1858 554L1859 555L1858 554z"/>
<path style="fill:#01ff01; stroke:none;" d="M526 556L527 557L526 556z"/>
<path style="fill:#08c049; stroke:none;" d="M678 556L679 557L678 556z"/>
<path style="fill:#01ff01; stroke:none;" d="M1193 557L1194 558L1193 557z"/>
<path style="fill:#08c049; stroke:none;" d="M2546 558L2547 559L2546 558z"/>
<path style="fill:#25db49; stroke:none;" d="M152 559L153 560L152 559z"/>
<path style="fill:#01ff01; stroke:none;" d="M679 559L680 560L679 559M818 559L819 560L818 559M1490 559L1491 560L1490 559z"/>
<path style="fill:#08c049; stroke:none;" d="M1855 559L1856 560L1855 559z"/>
<path style="fill:#01ff01; stroke:none;" d="M2408 559L2409 560L2408 559z"/>
<path style="fill:#08c049; stroke:none;" d="M1190 562L1191 563L1190 562z"/>
<path style="fill:#01ff01; stroke:none;" d="M2037 562L2038 563L2037 562M15 564L16 565L15 564z"/>
<path style="fill:#08c049; stroke:none;" d="M822 565L823 566L822 565z"/>
<path style="fill:#01ff01; stroke:none;" d="M1188 565L1189 566L1188 565M1494 565L1495 566L1494 565M1851 565L1852 566L1851 565z"/>
<path style="fill:#08c049; stroke:none;" d="M16 567L17 568L16 567z"/>
<path style="fill:#01ff01; stroke:none;" d="M1327 567L1328 568L1327 567z"/>
<path style="fill:#25db49; stroke:none;" d="M2403 567L2404 568L2403 567z"/>
<path style="fill:#01ff01; stroke:none;" d="M1186 568L1187 569L1186 568M1496 568L1497 569L1496 568M1849 568L1850 569L1849 568M825 569L826 570L825 569z"/>
<path style="fill:#08c049; stroke:none;" d="M1326 570L1327 571L1326 570z"/>
<path style="fill:#25db49; stroke:none;" d="M517 571L518 572L517 571M1184 571L1185 572L1184 571z"/>
<path style="fill:#08c049; stroke:none;" d="M2043 571L2044 572L2043 571M1352 572L1353 573L1352 572M1499 572L1500 573L1499 572z"/>
<path style="fill:#01ff01; stroke:none;" d="M1846 572L1847 573L1846 572z"/>
<path style="fill:#25db49; stroke:none;" d="M18 573L19 574L18 573z"/>
<path style="fill:#01ff01; stroke:none;" d="M684 573L685 574L684 573M1325 573L1326 574L1325 573z"/>
<path style="fill:#08c049; stroke:none;" d="M515 574L516 575L515 574M2398 574L2399 575L2398 574M163 575L164 576L163 575M1181 575L1182 576L1181 575M1353 575L1354 576L1353 575M2046 575L2047 576L2046 575M19 576L20 577L19 576z"/>
<path style="fill:#25db49; stroke:none;" d="M1502 576L1503 577L1502 576z"/>
<path style="fill:#08c049; stroke:none;" d="M1843 576L1844 577L1843 576M1354 578L1355 579L1354 578z"/>
<path style="fill:#01ff01; stroke:none;" d="M834 580L835 581L834 580M1177 580L1178 581L1177 580M2050 580L2051 581L2050 580z"/>
<path style="fill:#08c049; stroke:none;" d="M2538 582L2539 583L2538 582z"/>
<path style="fill:#25db49; stroke:none;" d="M1508 583L1509 584L1508 583z"/>
<path style="fill:#01ff01; stroke:none;" d="M1837 583L1838 584L1837 583M688 584L689 585L688 584M1321 584L1322 585L1321 584M1509 584L1510 585L1509 584z"/>
<path style="fill:#08c049; stroke:none;" d="M2390 584L2391 585L2390 584z"/>
<path style="fill:#01ff01; stroke:none;" d="M1510 585L1511 586L1510 585M1171 587L1172 588L1171 587z"/>
<path style="fill:#08c049; stroke:none;" d="M174 588L175 589L174 588z"/>
<path style="fill:#01ff01; stroke:none;" d="M2057 588L2058 589L2057 588z"/>
<path style="fill:#08c049; stroke:none;" d="M175 589L176 590L175 589M690 589L691 590L690 589z"/>
<path style="fill:#01ff01; stroke:none;" d="M1319 589L1320 590L1319 589M1358 589L1359 590L1358 589M176 590L177 591L176 590M502 590L503 591L502 590M177 591L178 592L177 591M501 591L502 592L501 591M499 593L500 594L499 593M1518 593L1519 594L1518 593M498 594L499 595L498 594z"/>
<path style="fill:#08c049; stroke:none;" d="M1360 594L1361 595L1360 594M1519 594L1520 595L1519 594z"/>
<path style="fill:#01ff01; stroke:none;" d="M181 595L182 596L181 595M497 595L498 596L497 595M182 596L183 597L182 596z"/>
<path style="fill:#08c049; stroke:none;" d="M496 596L497 597L496 596M1316 596L1317 597L1316 596z"/>
<path style="fill:#01ff01; stroke:none;" d="M1824 596L1825 597L1824 596z"/>
<path style="fill:#25db49; stroke:none;" d="M495 597L496 598L495 597z"/>
<path style="fill:#08c049; stroke:none;" d="M1823 597L1824 598L1823 597M2532 597L2533 598L2532 597M2067 598L2068 599L2067 598z"/>
<path style="fill:#01ff01; stroke:none;" d="M28 599L29 600L28 599z"/>
<path style="fill:#08c049; stroke:none;" d="M1159 599L1160 600L1159 599M1527 601L1528 602L1527 601M2372 602L2373 603L2372 602M488 603L489 604L488 603z"/>
<path style="fill:#01ff01; stroke:none;" d="M857 603L858 604L857 603z"/>
<path style="fill:#25db49; stroke:none;" d="M1816 603L1817 604L1816 603z"/>
<path style="fill:#01ff01; stroke:none;" d="M191 604L192 605L191 604M2074 604L2075 605L2074 604z"/>
<path style="fill:#08c049; stroke:none;" d="M1152 605L1153 606L1152 605z"/>
<path style="fill:#01ff01; stroke:none;" d="M1312 605L1313 606L1312 605z"/>
<path style="fill:#08c049; stroke:none;" d="M1532 605L1533 606L1532 605M1812 606L1813 607L1812 606z"/>
<path style="fill:#01ff01; stroke:none;" d="M2528 606L2529 607L2528 606z"/>
<path style="fill:#25db49; stroke:none;" d="M483 607L484 608L483 607M673 607L674 608L673 607z"/>
<path style="fill:#01ff01; stroke:none;" d="M1311 607L1312 608L1311 607z"/>
<path style="fill:#08c049; stroke:none;" d="M32 608L33 609L32 608z"/>
<path style="fill:#01ff01; stroke:none;" d="M196 608L197 609L196 608z"/>
<path style="fill:#08c049; stroke:none;" d="M673 608L674 609L673 608M1536 608L1537 609L1536 608z"/>
<path style="fill:#01ff01; stroke:none;" d="M2079 608L2080 609L2079 608M1310 609L1311 610L1310 609M1808 609L1809 610L1808 609z"/>
<path style="fill:#25db49; stroke:none;" d="M33 610L34 611L33 610z"/>
<path style="fill:#01ff01; stroke:none;" d="M699 610L700 611L699 610z"/>
<path style="fill:#08c049; stroke:none;" d="M1367 610L1368 611L1367 610z"/>
<path style="fill:#01ff01; stroke:none;" d="M2362 610L2363 611L2362 610M200 611L201 612L200 611z"/>
<path style="fill:#08c049; stroke:none;" d="M1309 611L1310 612L1309 611M2083 611L2084 612L2083 611z"/>
<path style="fill:#01ff01; stroke:none;" d="M476 612L477 613L476 612z"/>
<path style="fill:#25db49; stroke:none;" d="M700 612L701 613L700 612z"/>
<path style="fill:#08c049; stroke:none;" d="M1308 613L1309 614L1308 613z"/>
<path style="fill:#01ff01; stroke:none;" d="M473 614L474 615L473 614M872 615L873 616L872 615z"/>
<path style="fill:#08c049; stroke:none;" d="M1307 615L1308 616L1307 615M470 616L471 617L470 616z"/>
<path style="fill:#25db49; stroke:none;" d="M702 616L703 617L702 616M1548 616L1549 617L1548 616z"/>
<path style="fill:#01ff01; stroke:none;" d="M875 617L876 618L875 617z"/>
<path style="fill:#08c049; stroke:none;" d="M1306 617L1307 618L1306 617z"/>
<path style="fill:#25db49; stroke:none;" d="M2352 617L2353 618L2352 617z"/>
<path style="fill:#08c049; stroke:none;" d="M703 618L704 619L703 618M878 619L879 620L878 619z"/>
<path style="fill:#01ff01; stroke:none;" d="M1132 619L1133 620L1132 619z"/>
<path style="fill:#08c049; stroke:none;" d="M2095 619L2096 620L2095 619M704 620L705 621L704 620z"/>
<path style="fill:#01ff01; stroke:none;" d="M2347 620L2348 621L2347 620z"/>
<path style="fill:#25db49; stroke:none;" d="M39 622L40 623L39 622z"/>
<path style="fill:#01ff01; stroke:none;" d="M217 622L218 623L217 622M705 622L706 623L705 622z"/>
<path style="fill:#25db49; stroke:none;" d="M1127 622L1128 623L1127 622M1373 622L1374 623L1373 622z"/>
<path style="fill:#01ff01; stroke:none;" d="M1787 622L1788 623L1787 622M885 623L886 624L885 623M1125 623L1126 624L1125 623M2102 623L2103 624L2102 623M40 624L41 625L40 624M887 624L888 625L887 624z"/>
<path style="fill:#08c049; stroke:none;" d="M1374 624L1375 625L1374 624z"/>
<path style="fill:#01ff01; stroke:none;" d="M2340 624L2341 625L2340 624M2519 624L2520 625L2519 624M889 625L890 626L889 625M2338 625L2339 626L2338 625M1777 627L1778 628L1777 627z"/>
<path style="fill:#08c049; stroke:none;" d="M1300 628L1301 629L1300 628z"/>
<path style="fill:#01ff01; stroke:none;" d="M1571 628L1572 629L1571 628z"/>
<path style="fill:#25db49; stroke:none;" d="M1775 628L1776 629L1775 628z"/>
<path style="fill:#01ff01; stroke:none;" d="M2332 628L2333 629L2332 628M446 629L447 630L446 629z"/>
<path style="fill:#08c049; stroke:none;" d="M2114 629L2115 630L2114 629z"/>
<path style="fill:#01ff01; stroke:none;" d="M2330 629L2331 630L2330 629M900 630L901 631L900 630z"/>
<path style="fill:#25db49; stroke:none;" d="M1111 630L1112 631L1111 630z"/>
<path style="fill:#01ff01; stroke:none;" d="M2121 632L2122 633L2121 632z"/>
<path style="fill:#08c049; stroke:none;" d="M45 633L46 634L45 633z"/>
<path style="fill:#25db49; stroke:none;" d="M437 633L438 634L437 633M1297 633L1298 634L1297 633z"/>
<path style="fill:#08c049; stroke:none;" d="M1379 633L1380 634L1379 633M2514 633L2515 634L2514 633z"/>
<path style="fill:#01ff01; stroke:none;" d="M910 634L911 635L910 634M1101 634L1102 635L1101 634M2126 634L2127 635L2126 634z"/>
<path style="fill:#08c049; stroke:none;" d="M245 635L246 636L245 635z"/>
<path style="fill:#25db49; stroke:none;" d="M1589 635L1590 636L1589 635z"/>
<path style="fill:#08c049; stroke:none;" d="M1757 635L1758 636L1757 635z"/>
<path style="fill:#01ff01; stroke:none;" d="M248 636L249 637L248 636z"/>
<path style="fill:#25db49; stroke:none;" d="M1592 636L1593 637L1592 636z"/>
<path style="fill:#01ff01; stroke:none;" d="M1754 636L1755 637L1754 636M251 637L252 638L251 637M426 637L427 638L426 637z"/>
<path style="fill:#25db49; stroke:none;" d="M918 637L919 638L918 637M48 638L49 639L48 638z"/>
<path style="fill:#08c049; stroke:none;" d="M254 638L255 639L254 638z"/>
<path style="fill:#01ff01; stroke:none;" d="M423 638L424 639L423 638z"/>
<path style="fill:#25db49; stroke:none;" d="M1382 638L1383 639L1382 638z"/>
<path style="fill:#01ff01; stroke:none;" d="M1599 638L1600 639L1599 638z"/>
<path style="fill:#25db49; stroke:none;" d="M715 639L716 640L715 639z"/>
<path style="fill:#01ff01; stroke:none;" d="M1086 639L1087 640L1086 639M2141 639L2142 640L2141 639z"/>
<path style="fill:#08c049; stroke:none;" d="M1739 640L1740 641L1739 640M2300 640L2301 641L2300 640M268 642L269 643L268 642z"/>
<path style="fill:#01ff01; stroke:none;" d="M51 643L52 644L51 643M404 643L405 644L404 643z"/>
<path style="fill:#08c049; stroke:none;" d="M938 643L939 644L938 643z"/>
<path style="fill:#01ff01; stroke:none;" d="M1291 643L1292 644L1291 643M2288 643L2289 644L2288 643z"/>
<path style="fill:#25db49; stroke:none;" d="M2508 643L2509 644L2508 643z"/>
<path style="fill:#01ff01; stroke:none;" d="M276 644L277 645L276 644z"/>
<path style="fill:#08c049; stroke:none;" d="M942 644L943 645L942 644M2159 644L2160 645L2159 644z"/>
<path style="fill:#01ff01; stroke:none;" d="M2278 645L2279 646L2278 645z"/>
<path style="fill:#08c049; stroke:none;" d="M951 646L952 647L951 646M371 647L372 648L371 647z"/>
<path style="fill:#01ff01; stroke:none;" d="M957 647L958 648L957 647M1037 647L1038 648L1037 647M2263 647L2264 648L2263 647z"/>
<path style="fill:#25db49; stroke:none;" d="M965 648L966 649L965 648z"/>
<path style="fill:#01ff01; stroke:none;" d="M2505 648L2506 649L2505 648z"/>
<path style="fill:#25db49; stroke:none;" d="M2218 649L2219 650L2218 649z"/>
<path style="fill:#01ff01; stroke:none;" d="M722 650L723 651L722 650M1390 651L1391 652L1390 651z"/>
<path style="fill:#08c049; stroke:none;" d="M2503 651L2504 652L2503 651z"/>
<path style="fill:#01ff01; stroke:none;" d="M724 653L725 654L724 653M1392 654L1393 655L1392 654M2501 654L2502 655L2501 654M61 658L62 659L61 658M1281 658L1282 659L1281 658z"/>
<path style="fill:#25db49; stroke:none;" d="M729 660L730 661L729 660M1397 661L1398 662L1397 661M2495 662L2496 663L2495 662z"/>
<path style="fill:#01ff01; stroke:none;" d="M731 663L732 664L731 663M1399 664L1400 665L1399 664M734 667L735 668L734 667M1402 668L1403 669L1402 668M737 671L738 672L737 671M1953 671L1954 672L1953 671z"/>
<path style="fill:#08c049; stroke:none;" d="M1938 672L1939 673L1938 672z"/>
<path style="fill:#01ff01; stroke:none;" d="M2487 672L2488 673L2487 672z"/>
<path style="fill:#08c049; stroke:none;" d="M73 674L74 675L73 674M741 676L742 677L741 676z"/>
<path style="fill:#01ff01; stroke:none;" d="M1409 677L1410 678L1409 677z"/>
<path style="fill:#25db49; stroke:none;" d="M672 678L673 679L672 678z"/>
<path style="fill:#08c049; stroke:none;" d="M77 679L78 680L77 679z"/>
<path style="fill:#01ff01; stroke:none;" d="M672 679L673 680L672 679z"/>
<path style="fill:#08c049; stroke:none;" d="M1265 679L1266 680L1265 679z"/>
<path style="fill:#01ff01; stroke:none;" d="M1960 679L1961 680L1960 679M1931 680L1932 681L1931 680z"/>
<path style="fill:#08c049; stroke:none;" d="M2480 680L2481 681L2480 680z"/>
<path style="fill:#25db49; stroke:none;" d="M1930 681L1931 682L1930 681M746 682L747 683L746 682z"/>
<path style="fill:#01ff01; stroke:none;" d="M1414 683L1415 684L1414 683z"/>
<path style="fill:#08c049; stroke:none;" d="M82 685L83 686L82 685M1260 685L1261 686L1260 685z"/>
<path style="fill:#01ff01; stroke:none;" d="M1966 686L1967 687L1966 686z"/>
<path style="fill:#08c049; stroke:none;" d="M1924 688L1925 689L1924 688z"/>
<path style="fill:#01ff01; stroke:none;" d="M1421 691L1422 692L1421 691M2470 691L2471 692L2470 691z"/>
<path style="fill:#08c049; stroke:none;" d="M2469 692L2470 693L2469 692z"/>
<path style="fill:#01ff01; stroke:none;" d="M89 693L90 694L89 693M1253 693L1254 694L1253 693z"/>
<path style="fill:#25db49; stroke:none;" d="M2468 693L2469 694L2468 693z"/>
<path style="fill:#08c049; stroke:none;" d="M90 694L91 695L90 694z"/>
<path style="fill:#01ff01; stroke:none;" d="M1977 698L1978 699L1977 698M1914 699L1915 700L1914 699M1978 699L1979 700L1978 699M1913 700L1914 701L1913 700z"/>
<path style="fill:#08c049; stroke:none;" d="M1979 700L1980 701L1979 700z"/>
<path style="fill:#01ff01; stroke:none;" d="M1912 701L1913 702L1912 701M1980 701L1981 702L1980 701M1911 702L1912 703L1911 702M1981 702L1982 703L1981 702z"/>
<path style="fill:#08c049; stroke:none;" d="M1910 703L1911 704L1910 703M1909 704L1910 705L1909 704z"/>
<path style="fill:#01ff01; stroke:none;" d="M1908 705L1909 706L1908 705M1907 706L1908 707L1907 706z"/>
<path style="fill:#25db49; stroke:none;" d="M109 713L110 714L109 713z"/>
<path style="fill:#01ff01; stroke:none;" d="M1233 713L1234 714L1233 713z"/>
<path style="fill:#08c049; stroke:none;" d="M2448 713L2449 714L2448 713M110 714L111 715L110 714z"/>
<path style="fill:#01ff01; stroke:none;" d="M2447 714L2448 715L2447 714M111 715L112 716L111 715z"/>
<path style="fill:#08c049; stroke:none;" d="M1995 715L1996 716L1995 715z"/>
<path style="fill:#25db49; stroke:none;" d="M779 716L780 717L779 716z"/>
<path style="fill:#01ff01; stroke:none;" d="M780 717L781 718L780 717z"/>
<path style="fill:#08c049; stroke:none;" d="M1447 717L1448 718L1447 717z"/>
<path style="fill:#01ff01; stroke:none;" d="M1895 717L1896 718L1895 717z"/>
<path style="fill:#08c049; stroke:none;" d="M1225 720L1226 721L1225 720z"/>
<path style="fill:#25db49; stroke:none;" d="M118 721L119 722L118 721M2002 721L2003 722L2002 721z"/>
<path style="fill:#01ff01; stroke:none;" d="M119 722L120 723L119 722M787 723L788 724L787 723M2436 724L2437 725L2436 724M1219 725L1220 726L1219 725z"/>
<path style="fill:#08c049; stroke:none;" d="M792 727L793 728L792 727z"/>
<path style="fill:#01ff01; stroke:none;" d="M1883 727L1884 728L1883 727z"/>
<path style="fill:#08c049; stroke:none;" d="M1460 728L1461 729L1460 728z"/>
<path style="fill:#01ff01; stroke:none;" d="M1214 729L1215 730L1214 729z"/>
<path style="fill:#25db49; stroke:none;" d="M671 730L672 731L671 730z"/>
<path style="fill:#08c049; stroke:none;" d="M2013 730L2014 731L2013 730z"/>
<path style="fill:#01ff01; stroke:none;" d="M797 731L798 732L797 731z"/>
<path style="fill:#08c049; stroke:none;" d="M1210 732L1211 733L1210 732M1465 732L1466 733L1465 732M1875 733L1876 734L1875 733z"/>
<path style="fill:#25db49; stroke:none;" d="M544 734L545 735L544 734z"/>
<path style="fill:#08c049; stroke:none;" d="M801 734L802 735L801 734M2018 734L2019 735L2018 734M1206 735L1207 736L1206 735z"/>
<path style="fill:#01ff01; stroke:none;" d="M2022 737L2023 738L2022 737z"/>
<path style="fill:#25db49; stroke:none;" d="M1473 738L1474 739L1473 738z"/>
<path style="fill:#08c049; stroke:none;" d="M1868 738L1869 739L1868 738M2419 738L2420 739L2419 738M141 739L142 740L141 739z"/>
<path style="fill:#25db49; stroke:none;" d="M808 739L809 740L808 739z"/>
<path style="fill:#01ff01; stroke:none;" d="M546 741L547 742L546 741M1477 741L1478 742L1477 741M2415 741L2416 742L2415 741z"/>
<path style="fill:#25db49; stroke:none;" d="M1859 744L1860 745L1859 744M2409 745L2410 746L2409 745z"/>
<path style="fill:#08c049; stroke:none;" d="M1856 746L1857 747L1856 746z"/>
<path style="fill:#01ff01; stroke:none;" d="M156 749L157 750L156 749M823 749L824 750L823 749M519 750L520 751L519 750z"/>
<path style="fill:#08c049; stroke:none;" d="M1184 750L1185 751L1184 750z"/>
<path style="fill:#25db49; stroke:none;" d="M2041 750L2042 751L2041 750M161 752L162 753L161 752z"/>
<path style="fill:#01ff01; stroke:none;" d="M545 752L546 753L545 752z"/>
<path style="fill:#25db49; stroke:none;" d="M828 752L829 753L828 752M1846 752L1847 753L1846 752z"/>
<path style="fill:#08c049; stroke:none;" d="M514 753L515 754L514 753z"/>
<path style="fill:#01ff01; stroke:none;" d="M1495 753L1496 754L1495 753z"/>
<path style="fill:#25db49; stroke:none;" d="M2396 753L2397 754L2396 753z"/>
<path style="fill:#01ff01; stroke:none;" d="M166 755L167 756L166 755M833 755L834 756L833 755M1841 755L1842 756L1841 755z"/>
<path style="fill:#08c049; stroke:none;" d="M2049 755L2050 756L2049 755M1500 756L1501 757L1500 756z"/>
<path style="fill:#25db49; stroke:none;" d="M1839 756L1840 757L1839 756z"/>
<path style="fill:#01ff01; stroke:none;" d="M2391 756L2392 757L2391 756z"/>
<path style="fill:#08c049; stroke:none;" d="M507 757L508 758L507 757M544 759L545 760L544 759M175 760L176 761L175 760M842 760L843 761L842 760M1167 760L1168 761L1167 760z"/>
<path style="fill:#25db49; stroke:none;" d="M1507 760L1508 761L1507 760M177 761L178 762L177 761M846 762L847 763L846 762z"/>
<path style="fill:#08c049; stroke:none;" d="M2380 762L2381 763L2380 762z"/>
<path style="fill:#25db49; stroke:none;" d="M2378 763L2379 764L2378 763z"/>
<path style="fill:#01ff01; stroke:none;" d="M1514 764L1515 765L1514 764M2065 764L2066 765L2065 764z"/>
<path style="fill:#08c049; stroke:none;" d="M1516 765L1517 766L1516 765M2067 765L2068 766L2067 765z"/>
<path style="fill:#01ff01; stroke:none;" d="M1518 766L1519 767L1518 766z"/>
<path style="fill:#08c049; stroke:none;" d="M1520 767L1521 768L1520 767M2071 767L2072 768L2071 767z"/>
<path style="fill:#25db49; stroke:none;" d="M2370 767L2371 768L2370 767M858 768L859 769L858 768z"/>
<path style="fill:#01ff01; stroke:none;" d="M2073 768L2074 769L2073 768M193 769L194 770L193 769M542 769L543 770L542 769M860 769L861 770L860 769z"/>
<path style="fill:#08c049; stroke:none;" d="M1813 769L1814 770L1813 769z"/>
<path style="fill:#01ff01; stroke:none;" d="M2075 769L2076 770L2075 769z"/>
<path style="fill:#08c049; stroke:none;" d="M2366 769L2367 770L2366 769M481 770L482 771L481 770z"/>
<path style="fill:#25db49; stroke:none;" d="M1526 770L1527 771L1526 770z"/>
<path style="fill:#01ff01; stroke:none;" d="M2077 770L2078 771L2077 770M2364 770L2365 771L2364 770M669 771L670 772L669 771M1145 771L1146 772L1145 771z"/>
<path style="fill:#08c049; stroke:none;" d="M1528 771L1529 772L1528 771z"/>
<path style="fill:#25db49; stroke:none;" d="M1806 772L1807 773L1806 772z"/>
<path style="fill:#08c049; stroke:none;" d="M202 773L203 774L202 773M869 773L870 774L869 773z"/>
<path style="fill:#01ff01; stroke:none;" d="M2355 774L2356 775L2355 774z"/>
<path style="fill:#25db49; stroke:none;" d="M1537 775L1538 776L1537 775z"/>
<path style="fill:#01ff01; stroke:none;" d="M467 776L468 777L467 776M876 776L877 777L876 776z"/>
<path style="fill:#08c049; stroke:none;" d="M1539 776L1540 777L1539 776M540 777L541 778L540 777M1131 777L1132 778L1131 777z"/>
<path style="fill:#01ff01; stroke:none;" d="M2093 777L2094 778L2093 777M462 778L463 779L462 778M881 778L882 779L881 778z"/>
<path style="fill:#25db49; stroke:none;" d="M1544 778L1545 779L1544 778z"/>
<path style="fill:#01ff01; stroke:none;" d="M1791 778L1792 779L1791 778M2098 779L2099 780L2098 779z"/>
<path style="fill:#08c049; stroke:none;" d="M668 780L669 781L668 780z"/>
<path style="fill:#01ff01; stroke:none;" d="M222 781L223 782L222 781M454 781L455 782L454 781z"/>
<path style="fill:#08c049; stroke:none;" d="M889 781L890 782L889 781z"/>
<path style="fill:#01ff01; stroke:none;" d="M1115 783L1116 784L1115 783z"/>
<path style="fill:#08c049; stroke:none;" d="M2112 784L2113 785L2112 784z"/>
<path style="fill:#01ff01; stroke:none;" d="M2329 784L2330 785L2329 784z"/>
<path style="fill:#08c049; stroke:none;" d="M1770 785L1771 786L1770 785M2115 785L2116 786L2115 785M2326 785L2327 786L2326 785M1106 786L1107 787L1106 786z"/>
<path style="fill:#01ff01; stroke:none;" d="M2118 786L2119 787L2118 786z"/>
<path style="fill:#25db49; stroke:none;" d="M537 787L538 788L537 787M667 787L668 788L667 787z"/>
<path style="fill:#01ff01; stroke:none;" d="M1103 787L1104 788L1103 787M243 788L244 789L243 788M433 788L434 789L433 788M913 789L914 790L913 789z"/>
<path style="fill:#25db49; stroke:none;" d="M1575 789L1576 790L1575 789z"/>
<path style="fill:#01ff01; stroke:none;" d="M1756 789L1757 790L1756 789M2313 789L2314 790L2313 789M1752 790L1753 791L1752 790z"/>
<path style="fill:#08c049; stroke:none;" d="M2132 790L2133 791L2132 790z"/>
<path style="fill:#25db49; stroke:none;" d="M2309 790L2310 791L2309 790z"/>
<path style="fill:#08c049; stroke:none;" d="M920 791L921 792L920 791M1582 791L1583 792L1582 791z"/>
<path style="fill:#01ff01; stroke:none;" d="M1748 791L1749 792L1748 791z"/>
<path style="fill:#08c049; stroke:none;" d="M2136 791L2137 792L2136 791M257 792L258 793L257 792z"/>
<path style="fill:#25db49; stroke:none;" d="M419 792L420 793L419 792M2140 792L2141 793L2140 792z"/>
<path style="fill:#08c049; stroke:none;" d="M666 793L667 794L666 793M1739 793L1740 794L1739 793z"/>
<path style="fill:#25db49; stroke:none;" d="M2297 793L2298 794L2297 793z"/>
<path style="fill:#08c049; stroke:none;" d="M1594 794L1595 795L1594 794M2149 794L2150 795L2149 794M534 795L535 796L534 795M1729 795L1730 796L1729 795z"/>
<path style="fill:#01ff01; stroke:none;" d="M2154 795L2155 796L2154 795z"/>
<path style="fill:#08c049; stroke:none;" d="M2288 795L2289 796L2288 795M1065 797L1066 798L1065 797z"/>
<path style="fill:#25db49; stroke:none;" d="M1717 797L1718 798L1717 797z"/>
<path style="fill:#01ff01; stroke:none;" d="M2277 797L2278 798L2277 797M1060 798L1061 799L1060 798M291 799L292 800L291 799z"/>
<path style="fill:#08c049; stroke:none;" d="M385 799L386 800L385 799z"/>
<path style="fill:#25db49; stroke:none;" d="M961 799L962 800L961 799z"/>
<path style="fill:#08c049; stroke:none;" d="M2263 799L2264 800L2263 799M1630 800L1631 801L1630 800M1693 800L1694 801L1693 800M1642 801L1643 802L1642 801M2239 801L2240 802L2239 801z"/>
<path style="fill:#01ff01; stroke:none;" d="M531 802L532 803L531 802M36 807L37 808L36 807M663 807L664 808L663 807z"/>
<path style="fill:#08c049; stroke:none;" d="M50 811L51 812L50 811M662 811L663 812L662 811z"/>
<path style="fill:#01ff01; stroke:none;" d="M661 815L662 816L661 815z"/>
<path style="fill:#25db49; stroke:none;" d="M523 818L524 819L523 818z"/>
<path style="fill:#01ff01; stroke:none;" d="M520 823L521 824L520 823M64 824L65 825L64 824z"/>
<path style="fill:#08c049; stroke:none;" d="M65 825L66 826L65 825z"/>
<path style="fill:#25db49; stroke:none;" d="M66 826L67 827L66 826z"/>
<path style="fill:#08c049; stroke:none;" d="M74 833L75 834L74 833M80 838L81 839L80 838z"/>
<path style="fill:#01ff01; stroke:none;" d="M506 843L507 844L506 843M89 845L90 846L89 845z"/>
<path style="fill:#25db49; stroke:none;" d="M652 845L653 846L652 845M502 848L503 849L502 848z"/>
<path style="fill:#01ff01; stroke:none;" d="M651 848L652 849L651 848z"/>
<path style="fill:#25db49; stroke:none;" d="M100 853L101 854L100 853z"/>
<path style="fill:#08c049; stroke:none;" d="M103 855L104 856L103 855M106 857L107 858L106 857z"/>
<path style="fill:#01ff01; stroke:none;" d="M109 859L110 860L109 859M645 863L646 864L645 863M117 864L118 865L117 864M33 868L34 869L33 868z"/>
<path style="fill:#25db49; stroke:none;" d="M33 869L34 870L33 869z"/>
<path style="fill:#08c049; stroke:none;" d="M127 870L128 871L127 870M479 871L480 872L479 871M134 874L135 875L134 874z"/>
<path style="fill:#01ff01; stroke:none;" d="M640 874L641 875L640 874M136 875L137 876L136 875z"/>
<path style="fill:#25db49; stroke:none;" d="M473 876L474 877L473 876z"/>
<path style="fill:#01ff01; stroke:none;" d="M639 876L640 877L639 876M638 878L639 879L638 878z"/>
<path style="fill:#08c049; stroke:none;" d="M469 879L470 880L469 879z"/>
<path style="fill:#01ff01; stroke:none;" d="M637 880L638 881L637 880M636 882L637 883L636 882M462 884L463 885L462 884M456 888L457 889L456 888z"/>
<path style="fill:#08c049; stroke:none;" d="M164 889L165 890L164 889M453 890L454 891L453 890M173 893L174 894L173 893z"/>
<path style="fill:#01ff01; stroke:none;" d="M448 893L449 894L448 893z"/>
<path style="fill:#08c049; stroke:none;" d="M630 893L631 894L630 893z"/>
<path style="fill:#25db49; stroke:none;" d="M441 897L442 898L441 897M185 898L186 899L185 898z"/>
<path style="fill:#08c049; stroke:none;" d="M439 898L440 899L439 898z"/>
<path style="fill:#01ff01; stroke:none;" d="M626 900L627 901L626 900z"/>
<path style="fill:#08c049; stroke:none;" d="M193 901L194 902L193 901z"/>
<path style="fill:#01ff01; stroke:none;" d="M433 901L434 902L433 901M431 902L432 903L431 902z"/>
<path style="fill:#25db49; stroke:none;" d="M429 903L430 904L429 903M207 906L208 907L207 906z"/>
<path style="fill:#08c049; stroke:none;" d="M210 907L211 908L210 907M621 908L622 909L621 908M412 910L413 911L412 910M223 911L224 912L223 911z"/>
<path style="fill:#01ff01; stroke:none;" d="M234 914L235 915L234 914z"/>
<path style="fill:#25db49; stroke:none;" d="M397 915L398 916L397 915z"/>
<path style="fill:#01ff01; stroke:none;" d="M381 919L382 920L381 919z"/>
<path style="fill:#08c049; stroke:none;" d="M262 920L263 921L262 920z"/>
<path style="fill:#01ff01; stroke:none;" d="M376 920L377 921L376 920z"/>
<path style="fill:#25db49; stroke:none;" d="M613 920L614 921L613 920z"/>
<path style="fill:#08c049; stroke:none;" d="M280 922L281 923L280 922M294 923L295 924L294 923z"/>
<path style="fill:#01ff01; stroke:none;" d="M611 923L612 924L611 923M33 932L34 933L33 932M599 939L600 940L599 939M34 942L35 943L34 942z"/>
<path style="fill:#25db49; stroke:none;" d="M594 945L595 946L594 945z"/>
<path style="fill:#01ff01; stroke:none;" d="M589 951L590 952L589 951M42 960L43 961L42 960M43 961L44 962L43 961z"/>
<path style="fill:#08c049; stroke:none;" d="M580 961L581 962L580 961z"/>
<path style="fill:#01ff01; stroke:none;" d="M44 962L45 963L44 962z"/>
<path style="fill:#25db49; stroke:none;" d="M579 962L580 963L579 962z"/>
<path style="fill:#01ff01; stroke:none;" d="M45 963L46 964L45 963M46 964L47 965L46 964M57 974L58 975L57 974z"/>
<path style="fill:#08c049; stroke:none;" d="M63 979L64 980L63 979M562 979L563 980L562 979z"/>
<path style="fill:#01ff01; stroke:none;" d="M561 980L562 981L561 980z"/>
<path style="fill:#08c049; stroke:none;" d="M68 983L69 984L68 983z"/>
<path style="fill:#25db49; stroke:none;" d="M76 989L77 990L76 989z"/>
<path style="fill:#01ff01; stroke:none;" d="M80 992L81 993L80 992z"/>
<path style="fill:#25db49; stroke:none;" d="M83 994L84 995L83 994z"/>
<path style="fill:#01ff01; stroke:none;" d="M545 994L546 995L545 994z"/>
<path style="fill:#08c049; stroke:none;" d="M540 998L541 999L540 998z"/>
<path style="fill:#01ff01; stroke:none;" d="M95 1002L96 1003L95 1002M531 1005L532 1006L531 1005M524 1010L525 1011L524 1010M110 1011L111 1012L110 1011z"/>
<path style="fill:#25db49; stroke:none;" d="M521 1012L522 1013L521 1012z"/>
<path style="fill:#01ff01; stroke:none;" d="M119 1016L120 1017L119 1016z"/>
<path style="fill:#08c049; stroke:none;" d="M512 1018L513 1019L512 1018z"/>
<path style="fill:#01ff01; stroke:none;" d="M509 1020L510 1021L509 1020z"/>
<path style="fill:#08c049; stroke:none;" d="M504 1023L505 1024L504 1023z"/>
<path style="fill:#25db49; stroke:none;" d="M135 1024L136 1025L135 1024z"/>
<path style="fill:#01ff01; stroke:none;" d="M139 1026L140 1027L139 1026M499 1026L500 1027L499 1026z"/>
<path style="fill:#25db49; stroke:none;" d="M148 1030L149 1031L148 1030z"/>
<path style="fill:#01ff01; stroke:none;" d="M150 1031L151 1032L150 1031M490 1031L491 1032L490 1031M488 1032L489 1033L488 1032z"/>
<path style="fill:#25db49; stroke:none;" d="M482 1035L483 1036L482 1035z"/>
<path style="fill:#01ff01; stroke:none;" d="M162 1036L163 1037L162 1036z"/>
<path style="fill:#08c049; stroke:none;" d="M480 1036L481 1037L480 1036z"/>
<path style="fill:#01ff01; stroke:none;" d="M478 1037L479 1038L478 1037M183 1044L184 1045L183 1044M186 1045L187 1046L186 1045z"/>
<path style="fill:#25db49; stroke:none;" d="M459 1045L460 1046L459 1045z"/>
<path style="fill:#01ff01; stroke:none;" d="M451 1048L452 1049L451 1048z"/>
<path style="fill:#25db49; stroke:none;" d="M445 1050L446 1051L445 1050z"/>
<path style="fill:#08c049; stroke:none;" d="M439 1052L440 1053L439 1052M212 1053L213 1054L212 1053z"/>
<path style="fill:#01ff01; stroke:none;" d="M436 1053L437 1054L436 1053z"/>
<path style="fill:#25db49; stroke:none;" d="M422 1057L423 1058L422 1057z"/>
<path style="fill:#08c049; stroke:none;" d="M236 1059L237 1060L236 1059z"/>
<path style="fill:#25db49; stroke:none;" d="M251 1062L252 1063L251 1062z"/>
<path style="fill:#01ff01; stroke:none;" d="M381 1065L382 1066L381 1065M277 1066L278 1067L277 1066z"/>
</svg>
